<svg width="25" height="24" viewBox="0 0 25 24" fill="none" xmlns="http://www.w3.org/2000/svg">
<path d="M23.5432 11.7967C23.8662 11.7771 24.1122 11.4994 24.0926 11.1764C23.7198 5.02773 18.5983 0.211243 12.4328 0.211243C5.99124 0.211243 0.75061 5.45187 0.75061 11.8935C0.75061 18.3351 5.99124 23.5757 12.4328 23.5757C18.2038 23.5757 23.1281 19.3474 23.9848 13.6416C24.0328 13.3216 23.8123 13.0232 23.4923 12.9751C23.173 12.9273 22.8739 13.1475 22.8258 13.4676C22.0563 18.5937 17.6301 22.4039 12.4328 22.4039C6.63741 22.4039 1.92249 17.689 1.92249 11.8936C1.92249 6.0982 6.63741 1.3832 12.4328 1.3832C17.9798 1.3832 22.5875 5.71609 22.9228 11.2475C22.9423 11.5703 23.2198 11.8155 23.5432 11.7967Z" fill="#09A66D"/>
</svg>
